<?xml version="1.0" encoding="utf-8"?>
<!-- Generator: Adobe Illustrator 16.0.0, SVG Export Plug-In . SVG Version: 6.00 Build 0)  -->
<!DOCTYPE svg PUBLIC "-//W3C//DTD SVG 1.1//EN" "http://www.w3.org/Graphics/SVG/1.1/DTD/svg11.dtd">
<svg version="1.1" id="Layer_1" xmlns="http://www.w3.org/2000/svg" xmlns:xlink="http://www.w3.org/1999/xlink" x="0px" y="0px"
	 width="241px" height="77px" viewBox="0 0 241 77" enable-background="new 0 0 241 77" xml:space="preserve">
<g>
	<rect x="-2.64" y="-4.47" fill="none" width="247.64" height="81.47"/>
	<path fill-rule="evenodd" clip-rule="evenodd" fill="#AE936C" d="M35.857,53.229h170.67c0.64,0.633,2.647,1.098,5.03,1.098
		c2.89,0,5.237-0.685,5.237-1.526c0-0.843-2.348-1.527-5.237-1.527c-2.383,0-4.391,0.466-5.03,1.098l0,0H35.857
		c-0.636-0.632-2.647-1.098-5.026-1.098c-2.894,0-5.238,0.685-5.238,1.527c0,0.842,2.344,1.526,5.238,1.526
		C33.21,54.327,35.221,53.862,35.857,53.229L35.857,53.229"/>
	<path fill-rule="evenodd" clip-rule="evenodd" fill="#AE936C" d="M88.207,23.233c0.017,0.333,0.104,0.622,0.262,0.859l0,0H35.857
		c-0.636,0.633-2.647,1.097-5.026,1.097c-2.894,0-5.238-0.685-5.238-1.527c0-0.842,2.344-1.526,5.238-1.526
		c2.379,0,4.391,0.465,5.026,1.098l0,0H88.207"/>
	<path fill-rule="evenodd" clip-rule="evenodd" fill="#AE936C" d="M121.191,2.319c-1.991,0.031-4.13,0.641-4.601,2.293
		c2.723,2.653,3.574,9.644,3.755,15.211l0,0l0.014,4.833c0.125,0.23,0.52,0.414,0.832,0.415c0.313-0.001,0.707-0.183,0.831-0.413
		l0,0l0.014-4.834c0.182-5.566,1.033-12.557,3.756-15.209C125.32,2.962,123.183,2.35,121.191,2.319L121.191,2.319"/>
	<path fill-rule="evenodd" clip-rule="evenodd" fill="#AE936C" d="M123.113,24.653c-0.161,0.214-0.42,0.222-0.604,0l0,0v-4.168
		c0.177-5.912,1.083-12.678,3.653-15.51c1.259-0.105,3.747,0.683,3.94,2.162c-3.404,2.951-6.749,8.347-6.989,15.85l0,0V24.653"/>
	<path fill-rule="evenodd" clip-rule="evenodd" fill="#AE936C" d="M147.58,23.785c-0.217-0.941,0.037-1.893,0.037-2.842
		c0-0.063,0.096-0.08,0.12-0.028c0.298,0.674,0.948,1.317,1.037,1.503C150.136,24.432,147.878,25.071,147.58,23.785L147.58,23.785"
		/>
	<path fill-rule="evenodd" clip-rule="evenodd" fill="#AE936C" d="M152.181,23.215c-3.064,0.829-4.901-2.97-4.988-5.007
		c-0.024-0.159,0.108-0.178,0.184,0.063c1.002,2.21,3.021,4.131,4.972,4.789C152.587,23.143,152.426,23.154,152.181,23.215
		L152.181,23.215"/>
	<path fill-rule="evenodd" clip-rule="evenodd" fill="#AE936C" d="M124.816,24.681c-0.221,0.243-0.906,0.229-1.155,0l0,0v-1.184
		c-0.075-5.143,1.535-9.548,4.538-13.605c0.994-1.226,1.795-1.909,2.301-2.355c1.549,0.438,2.46,1.455,2.36,3.078
		c-1.561,0.817-2.863,1.852-3.938,3.046c-2.341,2.602-3.552,5.055-4.105,10.434l0,0V24.681"/>
	<path fill-rule="evenodd" clip-rule="evenodd" fill="#AE936C" d="M131.198,23.774c0.312-0.059,0.488-0.087,0.175,0.195
		c-1.637,1.053-4.313-0.208-3.411-3.061c0.108-0.386,0.372-0.749,0.541-0.982c0.101-0.13,0.104,0.017,0.045,0.119
		C128.036,22.321,129.755,23.891,131.198,23.774L131.198,23.774"/>
	<path fill-rule="evenodd" clip-rule="evenodd" fill="#AE936C" d="M128.915,17.619c1.595-1.396,3.729-1.189,4.639,0.334
		c0.307,0.502,0.406,1.344,0.2,1.88c-0.031,0.078-0.101,0.174-0.175,0.262c-0.019-0.079-0.04-0.196-0.063-0.257
		c-0.829-1.988-4.911-1.771-5.825,1.16c-0.535,1.709,0.278,2.894,1.219,3.389c0.833,0.433,1.855,0.328,2.508-0.144
		c0.073-0.051,0.163,0.167,0.081,0.257c-0.57,0.592-1.527,0.667-2.322,0.533C125.788,24.159,126.359,19.895,128.915,17.619
		L128.915,17.619"/>
	<path fill-rule="evenodd" clip-rule="evenodd" fill="#AE936C" d="M144.532,23.42c-3.034,2.287-6.94,0.516-7.668-1.544
		c-0.597-1.995,1.146-3.781,3.318-2.706c1.205,0.475,0.947,2.986-0.943,2.801c0.296-0.692,0.376-1.276-0.367-1.542
		c-0.851-0.106-1.19,0.452-1.223,0.983c-0.048,1.063,1.669,2.62,3.791,2.485c3.7-0.23,5.461-4.875,4.048-7.773
		c-0.898-1.835-2.653-3.441-4.974-4.077c-5.93-1.62-10.311,1.325-12.145,4.275c-1.401,2.255-2.229,4.606-2.304,7.579
		c0.074,0.892-0.816,0.892-0.816,0.223c0.371-4.532,2.131-9.039,5.978-11.654c3.038-2.067,8.94-3.067,13.188,0.875
		C147.644,16.342,147.347,21.286,144.532,23.42L144.532,23.42"/>
	<path fill-rule="evenodd" clip-rule="evenodd" fill="#AE936C" d="M147.036,23.463c-0.354,1.276-2.266,1.314-2.091,0.147
		c1.11-0.816,1.896-2.213,2.094-3.859c0.013-0.124,0.185-0.177,0.249,0.274C147.455,20.84,147.427,22.394,147.036,23.463
		L147.036,23.463"/>
	<path fill-rule="evenodd" clip-rule="evenodd" fill="#AE936C" d="M119.215,24.653c0.162,0.214,0.419,0.222,0.604,0l0,0v-4.168
		c-0.177-5.912-1.082-12.678-3.651-15.51c-1.26-0.105-3.748,0.683-3.941,2.162c3.403,2.951,6.748,8.347,6.988,15.85l0,0V24.653"/>
	<path fill-rule="evenodd" clip-rule="evenodd" fill="#AE936C" d="M111.13,23.774c-0.312-0.059-0.488-0.087-0.175,0.195
		c1.639,1.053,4.315-0.208,3.413-3.061c-0.111-0.386-0.373-0.749-0.542-0.982c-0.101-0.13-0.104,0.017-0.044,0.119
		C114.293,22.321,112.575,23.891,111.13,23.774L111.13,23.774"/>
	<path fill-rule="evenodd" clip-rule="evenodd" fill="#AE936C" d="M113.463,17.619c-1.595-1.396-3.731-1.189-4.639,0.334
		c-0.306,0.502-0.406,1.344-0.2,1.88c0.032,0.078,0.101,0.174,0.174,0.262c0.019-0.079,0.04-0.196,0.064-0.257
		c0.828-1.988,4.911-1.771,5.824,1.16c0.536,1.709-0.276,2.894-1.218,3.389c-0.834,0.433-1.854,0.328-2.507-0.144
		c-0.075-0.051-0.165,0.167-0.082,0.257c0.571,0.592,1.529,0.667,2.323,0.533C116.59,24.159,116.019,19.895,113.463,17.619
		L113.463,17.619"/>
	<path fill-rule="evenodd" clip-rule="evenodd" fill="#AE936C" d="M97.798,23.42c3.032,2.287,6.938,0.516,7.666-1.544
		c0.599-1.995-1.145-3.781-3.318-2.706c-1.206,0.475-0.947,2.986,0.942,2.801c-0.295-0.692-0.375-1.276,0.369-1.542
		c0.851-0.106,1.19,0.452,1.222,0.983c0.048,1.063-1.667,2.62-3.791,2.485c-3.701-0.23-5.461-4.875-4.047-7.773
		c0.898-1.835,2.652-3.441,4.974-4.077c5.93-1.62,10.31,1.325,12.145,4.275c1.401,2.255,2.228,4.606,2.302,7.579
		c-0.075,0.892,0.817,0.892,0.817,0.223c-0.371-4.532-2.13-9.039-5.977-11.654c-3.039-2.067-8.94-3.067-13.188,0.875
		C94.685,16.342,94.983,21.286,97.798,23.42L97.798,23.42"/>
	<path fill-rule="evenodd" clip-rule="evenodd" fill="#AE936C" d="M95.292,23.463c0.356,1.276,2.266,1.314,2.091,0.147
		c-1.109-0.816-1.894-2.213-2.093-3.859c-0.012-0.124-0.184-0.177-0.25,0.274C94.874,20.84,94.902,22.394,95.292,23.463
		L95.292,23.463"/>
	<path fill-rule="evenodd" clip-rule="evenodd" fill="#AE936C" d="M94.749,23.785c0.217-0.941-0.038-1.893-0.038-2.842
		c0-0.063-0.095-0.08-0.12-0.028c-0.298,0.674-0.949,1.317-1.037,1.503C92.192,24.432,94.45,25.071,94.749,23.785L94.749,23.785"/>
	<path fill-rule="evenodd" clip-rule="evenodd" fill="#AE936C" d="M90.198,23.215c3.064,0.829,4.901-2.97,4.988-5.007
		c0.024-0.159-0.109-0.178-0.185,0.063c-1.002,2.21-3.02,4.131-4.97,4.789C89.789,23.143,89.952,23.154,90.198,23.215L90.198,23.215
		"/>
	<path fill-rule="evenodd" clip-rule="evenodd" fill="#AE936C" d="M117.56,24.681c0.222,0.243,0.907,0.229,1.157,0l0,0v-1.184
		c0.075-5.143-1.535-9.548-4.54-13.605c-0.992-1.226-1.793-1.909-2.299-2.355c-1.55,0.438-2.461,1.455-2.36,3.078
		c1.561,0.817,2.864,1.852,3.937,3.046c2.342,2.602,3.553,5.055,4.105,10.434l0,0V24.681"/>
	<path fill-rule="evenodd" clip-rule="evenodd" fill="#AE936C" d="M153.919,24.092c0.155-0.237,0.244-0.526,0.257-0.859l0,0h52.351
		c0.639-0.633,2.647-1.098,5.029-1.098c2.892,0,5.239,0.684,5.239,1.526c0,0.843-2.348,1.527-5.239,1.527
		c-2.382,0-4.391-0.464-5.029-1.097l0,0H153.919"/>
	<path fill-rule="evenodd" clip-rule="evenodd" fill="#AE936C" d="M135.63,23.212h-2.405c0.044,0.162,0.064,0.341,0.064,0.533
		c0,0.11-0.007,0.22-0.027,0.327l0,0h3.011C136.023,23.803,135.805,23.515,135.63,23.212L135.63,23.212"/>
	<path fill-rule="evenodd" clip-rule="evenodd" fill="#AE936C" d="M109.12,23.212h-2.407c-0.175,0.303-0.39,0.591-0.641,0.859l0,0
		h3.014c-0.021-0.106-0.031-0.216-0.031-0.33C109.056,23.553,109.077,23.374,109.12,23.212L109.12,23.212"/>
	<path fill-rule="evenodd" clip-rule="evenodd" fill="#231F20" d="M19.658,69.926c0,0.154,0.09,0.224,0.244,0.224
		c0.193,0,0.385-0.027,0.581-0.038c0.237-0.01,0.62-0.027,0.963-0.031c0.396,0.008,0.79,0.021,1.189,0.045
		c0.127,0.014,0.262,0.03,0.396,0.03c0.182,0,0.268-0.086,0.268-0.229c0-0.096-0.03-0.17-0.237-0.207
		c-0.336-0.064-0.694-0.071-0.945-0.351c-0.126-0.137-0.269-0.312-0.269-1.271l0,0l0.011-2.328c0-0.191,0.063-0.286,0.413-0.286l0,0
		h1.163c1.109,0,1.385,0.152,1.54,0.748c0.03,0.123,0.051,0.25,0.079,0.377c0.055,0.218,0.124,0.252,0.221,0.252
		c0.124,0,0.226-0.06,0.226-0.319c0-0.468-0.079-0.988-0.079-1.4c0-0.364,0.048-0.707,0.048-1.078c0-0.176-0.08-0.251-0.23-0.251
		c-0.083,0-0.147,0.022-0.203,0.124c-0.121,0.232-0.107,0.535-0.357,0.714c-0.114,0.078-0.283,0.18-1.022,0.18l0,0h-1.398
		c-0.336,0-0.385-0.055-0.385-0.348l0,0l0.01-2.578c0-0.76,0.032-0.822,1.018-0.822c0.656,0,1.757,0.1,2.124,0.162
		c0.502,0.089,0.562,0.211,0.562,0.477c0,0.184-0.011,0.364-0.011,0.547c0,0.155,0.079,0.228,0.233,0.228
		c0.124,0,0.234-0.059,0.234-0.351c0-0.244,0.025-0.578,0.083-0.929c0.023-0.176,0.086-0.33,0.086-0.522
		c0-0.132-0.086-0.217-0.247-0.217c-0.145,0-0.214,0.014-0.406,0.035c-0.417,0.05-0.619,0.061-0.921,0.061l0,0h-3.246
		c-0.457,0-0.984-0.027-1.436-0.079c-0.269-0.023-0.273-0.023-0.379-0.023c-0.195,0-0.279,0.079-0.279,0.214
		c0,0.095,0.035,0.147,0.131,0.189c0.147,0.071,0.317,0.064,0.474,0.099c0.221,0.048,0.805,0.2,0.805,1.083c0,0.173,0,0.345,0,0.514
		l0,0l-0.014,5.612c0,1.273-0.206,1.338-0.578,1.465c-0.123,0.037-0.261,0.031-0.37,0.104
		C19.693,69.774,19.658,69.844,19.658,69.926L19.658,69.926"/>
	<path fill-rule="evenodd" clip-rule="evenodd" fill="#231F20" d="M27.339,69.908c0,0.145,0.079,0.217,0.333,0.217
		c0.481,0,0.96-0.048,1.445-0.048c0.292,0.003,0.611,0.013,1.03,0.045c0.17,0.01,0.338,0.033,0.507,0.033
		c0.241,0,0.322-0.096,0.322-0.22c0-0.092-0.035-0.145-0.185-0.199c-0.235-0.075-0.493-0.056-0.714-0.168
		c-0.304-0.144-0.548-0.365-0.548-1.402l0,0v-5.961c0-0.892,0.219-1.056,0.574-1.17c0.124-0.045,0.254-0.035,0.375-0.096
		c0.09-0.046,0.12-0.096,0.12-0.21c0-0.101-0.051-0.192-0.258-0.192c-0.436,0-0.869,0.033-1.306,0.033
		c-0.347,0-0.708-0.011-1.45-0.061c-0.134-0.008-0.269-0.024-0.399-0.024c-0.145,0-0.234,0.085-0.234,0.216
		c0,0.103,0.051,0.165,0.168,0.207c0.203,0.065,0.417,0.053,0.62,0.127c0.415,0.148,0.639,0.333,0.639,1.299l0,0v6.031
		c0,0.928-0.212,1.082-0.491,1.214c-0.122,0.058-0.255,0.075-0.378,0.131C27.381,69.761,27.339,69.819,27.339,69.908L27.339,69.908"
		/>
	<path fill-rule="evenodd" clip-rule="evenodd" fill="#231F20" d="M34.049,63.04l6.013,6.776c0.21,0.226,0.299,0.326,0.458,0.326
		c0.167,0,0.281-0.053,0.281-0.462l0,0l-0.004-7.209c0.014-0.714,0.021-1.217,0.654-1.416c0.155-0.047,0.355-0.056,0.433-0.146
		c0.038-0.037,0.056-0.085,0.056-0.14c0-0.144-0.062-0.228-0.242-0.228c-0.38,0-0.763,0.027-1.145,0.027
		c-1.014,0-1.25-0.011-1.389-0.02c-0.202-0.008-0.401-0.045-0.6-0.045c-0.166,0-0.258,0.096-0.258,0.244
		c0,0.109,0.051,0.179,0.215,0.206c0.348,0.062,0.651,0.064,0.877,0.172c0.327,0.151,0.567,0.423,0.675,0.936
		c0.014,0.079,0.034,0.116,0.034,0.859l0,0v5.232l-6.419-7.234c-0.185-0.212-0.278-0.405-0.611-0.405
		c-0.172,0-0.336,0.035-0.502,0.035c-0.203,0-0.401-0.03-0.605-0.03c-0.165,0-0.254,0.079-0.254,0.229
		c0,0.1,0.028,0.154,0.162,0.199c0.268,0.089,1.479,0.147,1.479,2.112l0,0v5.259c0,1.046-0.251,1.231-0.831,1.358
		c-0.159,0.038-0.338,0.002-0.486,0.107c-0.048,0.037-0.088,0.087-0.088,0.177c0,0.121,0.061,0.196,0.312,0.196
		c0.313,0,0.626-0.05,0.936-0.069c0.203-0.006,0.396-0.01,0.739-0.01c0.505,0,0.667,0.008,1.011,0.045
		c0.086,0.014,0.169,0.024,0.254,0.024c0.221,0,0.288-0.097,0.288-0.209c0-0.121-0.051-0.185-0.155-0.211
		c-0.161-0.051-0.336-0.044-0.509-0.088c-0.515-0.132-0.776-0.376-0.776-1.259l0,0V63.04"/>
	<path fill-rule="evenodd" clip-rule="evenodd" fill="#231F20" d="M43.057,69.93c0,0.123,0.072,0.213,0.23,0.213
		c0.042,0,0.079,0,0.116,0c0.423,0,0.838-0.041,1.26-0.053c0.408-0.006,0.687-0.01,1.062-0.01c0.402,0,0.565,0,1.323,0.038
		c0.378,0.021,0.756,0.066,1.134,0.066c0.771,0,1.22-0.224,1.709-0.939c0.392-0.571,0.444-0.888,0.444-0.938
		c0-0.117-0.094-0.194-0.228-0.194c-0.058,0-0.085,0.005-0.152,0.063c-0.076,0.072-0.116,0.169-0.175,0.251
		c-0.346,0.476-0.845,0.805-1.408,0.945c-0.117,0.028-0.365,0.075-1.135,0.075l0,0h-0.811c-1.08,0-1.159-0.244-1.159-0.632l0,0
		v-2.909c0-0.356,0.069-0.402,0.354-0.402l0,0h1.217c1.251,0,1.419,0.265,1.562,0.771c0.046,0.176,0.017,0.367,0.102,0.533
		c0.042,0.082,0.093,0.104,0.161,0.104c0.159,0,0.248-0.076,0.248-0.249c0-0.156-0.024-0.315-0.034-0.47
		c-0.035-0.491-0.037-0.58-0.037-1.039c0-0.33,0.016-0.687,0.016-1.004c0-0.274-0.089-0.326-0.226-0.326
		c-0.086,0-0.163,0.047-0.2,0.144c-0.111,0.232-0.083,0.523-0.327,0.699c-0.102,0.072-0.265,0.175-1.051,0.175l0,0h-1.387
		c-0.336,0-0.415-0.072-0.415-0.396l0,0v-2.777c0-0.403,0.099-0.536,0.643-0.536l0,0h1.322c1.27,0,1.332,0.133,1.475,0.271
		c0.3,0.281,0.295,0.66,0.362,1.018c0.039,0.195,0.104,0.23,0.23,0.23c0.104,0,0.161-0.035,0.203-0.11
		c0.069-0.134,0.039-0.278,0.042-0.42c0.006-0.309,0.03-0.607,0.069-0.935c0.021-0.134,0.044-0.258,0.044-0.399
		c0-0.25-0.095-0.319-0.251-0.319c-0.1,0-0.178,0.004-0.704,0.042c-0.716,0.048-1.317,0.068-1.709,0.068l0,0h-3.087
		c-0.31,0-0.612-0.072-0.921-0.072c-0.22,0-0.283,0.094-0.289,0.211c0,0.085,0.03,0.154,0.164,0.204
		c0.221,0.094,0.47,0.063,0.695,0.154c0.346,0.149,0.581,0.349,0.581,1.328l0,0v6.01c0,0.925-0.237,1.102-0.541,1.21
		c-0.123,0.046-0.257,0.038-0.374,0.094C43.098,69.765,43.057,69.83,43.057,69.93L43.057,69.93"/>
	<path fill-rule="evenodd" clip-rule="evenodd" fill="#231F20" d="M66.072,69.908c0,0.145,0.078,0.217,0.337,0.217
		c0.477,0,0.96-0.048,1.439-0.048c0.292,0.003,0.616,0.013,1.032,0.045c0.168,0.01,0.336,0.033,0.504,0.033
		c0.242,0,0.324-0.096,0.324-0.22c0-0.092-0.035-0.145-0.186-0.199c-0.233-0.075-0.491-0.056-0.716-0.168
		c-0.302-0.144-0.545-0.365-0.545-1.402l0,0v-5.961c0-0.892,0.22-1.056,0.574-1.17c0.123-0.045,0.256-0.035,0.374-0.096
		c0.089-0.046,0.121-0.096,0.121-0.21c0-0.101-0.052-0.192-0.259-0.192c-0.436,0-0.869,0.033-1.305,0.033
		c-0.345,0-0.709-0.011-1.451-0.061c-0.135-0.008-0.265-0.024-0.398-0.024c-0.141,0-0.234,0.085-0.234,0.216
		c0,0.103,0.052,0.165,0.168,0.207c0.204,0.065,0.419,0.053,0.62,0.127c0.415,0.148,0.638,0.333,0.638,1.299l0,0v6.031
		c0,0.928-0.209,1.082-0.491,1.214c-0.12,0.058-0.253,0.075-0.374,0.131C66.113,69.761,66.072,69.819,66.072,69.908L66.072,69.908"
		/>
	<path fill-rule="evenodd" clip-rule="evenodd" fill="#231F20" d="M72.781,63.04l6.017,6.776c0.205,0.226,0.299,0.326,0.454,0.326
		c0.168,0,0.286-0.053,0.286-0.462l0,0l-0.007-7.209c0.014-0.714,0.021-1.217,0.652-1.416c0.154-0.047,0.354-0.056,0.433-0.146
		c0.039-0.037,0.055-0.085,0.055-0.14c0-0.144-0.063-0.228-0.24-0.228c-0.382,0-0.765,0.027-1.142,0.027
		c-1.014,0-1.255-0.011-1.392-0.02c-0.203-0.008-0.402-0.045-0.602-0.045c-0.165,0-0.255,0.096-0.255,0.244
		c0,0.109,0.048,0.179,0.213,0.206c0.348,0.062,0.65,0.064,0.876,0.172c0.327,0.151,0.568,0.423,0.674,0.936
		c0.017,0.079,0.035,0.116,0.035,0.859l0,0v5.232l-6.418-7.234c-0.186-0.212-0.279-0.405-0.613-0.405
		c-0.171,0-0.336,0.035-0.5,0.035c-0.205,0-0.403-0.03-0.606-0.03c-0.165,0-0.255,0.079-0.255,0.229c0,0.1,0.027,0.154,0.162,0.199
		c0.269,0.089,1.479,0.147,1.479,2.112l0,0v5.259c0,1.046-0.251,1.231-0.829,1.358c-0.16,0.038-0.339,0.002-0.488,0.107
		c-0.047,0.037-0.086,0.087-0.086,0.177c0,0.121,0.06,0.196,0.311,0.196c0.313,0,0.625-0.05,0.934-0.069
		c0.207-0.006,0.399-0.01,0.74-0.01c0.508,0,0.667,0.008,1.011,0.045c0.085,0.014,0.168,0.024,0.255,0.024
		c0.219,0,0.289-0.097,0.289-0.209c0-0.121-0.053-0.185-0.155-0.211c-0.163-0.051-0.338-0.044-0.506-0.088
		c-0.519-0.132-0.781-0.376-0.781-1.259l0,0V63.04"/>
	<path fill-rule="evenodd" clip-rule="evenodd" fill="#231F20" d="M81.798,69.908c0,0.145,0.08,0.217,0.333,0.217
		c0.482,0,0.96-0.048,1.445-0.048c0.292,0.003,0.612,0.013,1.032,0.045c0.168,0.01,0.336,0.033,0.505,0.033
		c0.24,0,0.322-0.096,0.322-0.22c0-0.092-0.034-0.145-0.186-0.199c-0.233-0.075-0.491-0.056-0.714-0.168
		c-0.302-0.144-0.547-0.365-0.547-1.402l0,0v-5.961c0-0.892,0.221-1.056,0.574-1.17c0.122-0.045,0.255-0.035,0.375-0.096
		c0.09-0.046,0.12-0.096,0.12-0.21c0-0.101-0.051-0.192-0.258-0.192c-0.436,0-0.869,0.033-1.306,0.033
		c-0.348,0-0.708-0.011-1.451-0.061c-0.134-0.008-0.268-0.024-0.402-0.024c-0.141,0-0.23,0.085-0.23,0.216
		c0,0.103,0.051,0.165,0.168,0.207c0.2,0.065,0.416,0.053,0.619,0.127c0.416,0.148,0.639,0.333,0.639,1.299l0,0v6.031
		c0,0.928-0.214,1.082-0.491,1.214c-0.12,0.058-0.255,0.075-0.378,0.131C81.839,69.761,81.798,69.819,81.798,69.908L81.798,69.908"
		/>
	<path fill-rule="evenodd" clip-rule="evenodd" fill="#231F20" d="M88.509,63.04l6.013,6.776c0.21,0.226,0.3,0.326,0.458,0.326
		c0.168,0,0.281-0.053,0.281-0.462l0,0l-0.003-7.209c0.014-0.714,0.021-1.217,0.654-1.416c0.154-0.047,0.353-0.056,0.433-0.146
		c0.038-0.037,0.055-0.085,0.055-0.14c0-0.144-0.062-0.228-0.241-0.228c-0.381,0-0.763,0.027-1.144,0.027
		c-1.016,0-1.252-0.011-1.389-0.02c-0.203-0.008-0.403-0.045-0.603-0.045c-0.165,0-0.258,0.096-0.258,0.244
		c0,0.109,0.053,0.179,0.218,0.206c0.346,0.062,0.649,0.064,0.875,0.172c0.327,0.151,0.567,0.423,0.674,0.936
		c0.014,0.079,0.034,0.116,0.034,0.859l0,0v5.232l-6.417-7.234c-0.186-0.212-0.278-0.405-0.616-0.405
		c-0.167,0-0.333,0.035-0.498,0.035c-0.203,0-0.406-0.03-0.605-0.03c-0.165,0-0.254,0.079-0.254,0.229
		c0,0.1,0.028,0.154,0.161,0.199c0.265,0.089,1.479,0.147,1.479,2.112l0,0v5.259c0,1.046-0.255,1.231-0.832,1.358
		c-0.162,0.038-0.337,0.002-0.486,0.107c-0.047,0.037-0.09,0.087-0.09,0.177c0,0.121,0.063,0.196,0.313,0.196
		c0.313,0,0.626-0.05,0.935-0.069c0.203-0.006,0.396-0.01,0.739-0.01c0.505,0,0.667,0.008,1.012,0.045
		c0.085,0.014,0.168,0.024,0.253,0.024c0.221,0,0.286-0.097,0.286-0.209c0-0.121-0.049-0.185-0.152-0.211
		c-0.161-0.051-0.336-0.044-0.507-0.088c-0.52-0.132-0.778-0.376-0.778-1.259l0,0V63.04"/>
	<path fill-rule="evenodd" clip-rule="evenodd" fill="#231F20" d="M105.705,69.005V66.75c0-1.009,0.241-1.143,0.664-1.246
		c0.159-0.041,0.364-0.023,0.364-0.27c0-0.125-0.062-0.207-0.216-0.207c-0.581,0-1.162,0.062-1.747,0.062
		c-0.337,0-0.671-0.03-1.011-0.03c-0.196,0-0.254,0.088-0.254,0.213c0,0.089,0.035,0.146,0.079,0.182
		c0.045,0.034,0.117,0.038,0.251,0.069c0.508,0.105,0.715,0.267,0.715,1.131l0,0v1.221c0,0.519-0.079,0.7-0.52,1.071
		c-0.631,0.534-1.367,0.784-2.083,0.784c-1.302,0-2.365-0.533-3.177-1.693c-0.504-0.736-0.855-1.762-0.855-2.998
		c0-2.748,1.701-4.192,3.668-4.192c1.541,0,2.905,0.798,3.603,1.984c0.09,0.146,0.104,0.179,0.199,0.398
		c0.096,0.243,0.12,0.282,0.276,0.282c0.127,0,0.226-0.083,0.226-0.21c0-0.229-0.062-0.453-0.099-0.681
		c-0.058-0.452-0.063-0.487-0.097-1.244c-0.006-0.196-0.083-0.233-0.182-0.233c-0.148,0-0.22,0.161-0.364,0.161
		c-0.09,0-0.138-0.034-0.283-0.107c-1.021-0.532-2.106-0.791-3.145-0.791c-3.156,0.011-5.057,2.249-5.057,5.072
		c0,2.867,1.998,4.813,4.972,4.813c0.739,0,1.464-0.067,2.166-0.324c0.137-0.052,0.36-0.142,1.104-0.584
		C105.169,69.224,105.3,69.159,105.705,69.005L105.705,69.005"/>
	<path fill-rule="evenodd" clip-rule="evenodd" fill="#231F20" d="M121.896,69.895c0,0.127,0.069,0.215,0.233,0.215
		c0.024,0,0.048,0,0.068,0c0.413,0,0.822-0.021,1.235-0.029c1.234,0.024,2.46,0.131,3.698,0.131c0.739,0,1.289-0.277,1.747-1.063
		c0.254-0.43,0.275-0.615,0.275-0.666c0-0.138-0.104-0.217-0.23-0.217c-0.063,0-0.11,0.007-0.185,0.117
		c-0.09,0.124-0.159,0.25-0.26,0.367c-0.374,0.426-0.879,0.78-2.496,0.806l0,0l-1.117,0.013c-0.412,0.011-0.587-0.128-0.666-0.275
		c-0.027-0.048-0.062-0.106-0.062-0.595l0,0l0.016-6.445c0-0.946,0.237-1.101,0.534-1.207c0.127-0.046,0.274-0.046,0.398-0.106
		c0.081-0.046,0.12-0.096,0.12-0.195c0-0.129-0.09-0.214-0.244-0.214c-0.408,0-0.815,0.045-1.221,0.045
		c-0.608,0-1.044-0.021-1.258-0.032c-0.227-0.018-0.447-0.061-0.675-0.061c-0.171,0-0.257,0.096-0.257,0.215
		c0,0.101,0.042,0.159,0.151,0.196c0.16,0.063,0.333,0.052,0.499,0.094c0.759,0.196,0.773,0.705,0.773,1.556l0,0l-0.015,5.675
		c0,1.18-0.247,1.297-0.57,1.389c-0.158,0.044-0.348,0.048-0.426,0.123C121.928,69.768,121.896,69.825,121.896,69.895
		L121.896,69.895"/>
	<path fill-rule="evenodd" clip-rule="evenodd" fill="#231F20" d="M158.727,69.005V66.75c0-1.009,0.24-1.143,0.657-1.246
		c0.161-0.041,0.371-0.023,0.371-0.27c0-0.125-0.068-0.207-0.22-0.207c-0.582,0-1.163,0.062-1.744,0.062
		c-0.336,0-0.672-0.03-1.013-0.03c-0.196,0-0.252,0.088-0.252,0.213c0,0.089,0.031,0.146,0.079,0.182
		c0.044,0.034,0.115,0.038,0.248,0.069c0.512,0.105,0.719,0.267,0.719,1.131l0,0v1.221c0,0.519-0.08,0.7-0.522,1.071
		c-0.633,0.534-1.369,0.784-2.083,0.784c-1.303,0-2.359-0.533-3.167-1.693c-0.512-0.736-0.862-1.762-0.862-2.998
		c0-2.748,1.705-4.192,3.668-4.192c1.535,0,2.903,0.798,3.599,1.984c0.086,0.146,0.104,0.179,0.196,0.398
		c0.099,0.243,0.124,0.282,0.281,0.282c0.124,0,0.227-0.083,0.227-0.21c0-0.229-0.064-0.453-0.099-0.681
		c-0.059-0.452-0.066-0.487-0.096-1.244c-0.015-0.196-0.088-0.233-0.183-0.233c-0.149,0-0.221,0.161-0.368,0.161
		c-0.093,0-0.138-0.034-0.278-0.107c-1.021-0.532-2.11-0.791-3.146-0.791c-3.156,0.011-5.05,2.249-5.05,5.072
		c0,2.867,1.989,4.813,4.964,4.813c0.738,0,1.464-0.067,2.162-0.324c0.141-0.052,0.364-0.142,1.107-0.584
		C158.188,69.224,158.315,69.159,158.727,69.005L158.727,69.005"/>
	<path fill-rule="evenodd" clip-rule="evenodd" fill="#231F20" d="M160.22,69.908c0,0.145,0.081,0.217,0.332,0.217
		c0.486,0,0.964-0.048,1.444-0.048c0.288,0.003,0.615,0.013,1.03,0.045c0.17,0.01,0.341,0.033,0.51,0.033
		c0.24,0,0.324-0.096,0.324-0.22c0-0.092-0.042-0.145-0.187-0.199c-0.237-0.075-0.491-0.056-0.719-0.168
		c-0.302-0.144-0.546-0.365-0.546-1.402l0,0v-5.961c0-0.892,0.224-1.056,0.577-1.17c0.116-0.045,0.254-0.035,0.371-0.096
		c0.085-0.046,0.12-0.096,0.12-0.21c0-0.101-0.053-0.192-0.262-0.192c-0.433,0-0.862,0.033-1.299,0.033
		c-0.347,0-0.712-0.011-1.453-0.061c-0.132-0.008-0.265-0.024-0.399-0.024c-0.144,0-0.229,0.085-0.229,0.216
		c0,0.103,0.044,0.165,0.167,0.207c0.2,0.065,0.416,0.053,0.612,0.127c0.424,0.148,0.646,0.333,0.646,1.299l0,0v6.031
		c0,0.928-0.213,1.082-0.492,1.214c-0.124,0.058-0.258,0.075-0.378,0.131C160.259,69.761,160.22,69.819,160.22,69.908L160.22,69.908
		"/>
	<path fill-rule="evenodd" clip-rule="evenodd" fill="#231F20" d="M166.929,63.04l6.013,6.776c0.211,0.226,0.303,0.326,0.458,0.326
		c0.172,0,0.285-0.053,0.285-0.462l0,0l-0.004-7.209c0.008-0.714,0.021-1.217,0.653-1.416c0.151-0.047,0.347-0.056,0.43-0.146
		c0.042-0.037,0.055-0.085,0.055-0.14c0-0.144-0.065-0.228-0.24-0.228c-0.383,0-0.76,0.027-1.142,0.027
		c-1.018,0-1.257-0.011-1.396-0.02c-0.195-0.008-0.396-0.045-0.598-0.045c-0.169,0-0.255,0.096-0.255,0.244
		c0,0.109,0.051,0.179,0.217,0.206c0.341,0.062,0.649,0.064,0.873,0.172c0.329,0.151,0.571,0.423,0.673,0.936
		c0.016,0.079,0.035,0.116,0.035,0.859l0,0v5.232l-6.418-7.234c-0.186-0.212-0.282-0.405-0.616-0.405
		c-0.163,0-0.33,0.035-0.497,0.035c-0.203,0-0.402-0.03-0.606-0.03c-0.164,0-0.254,0.079-0.254,0.229c0,0.1,0.027,0.154,0.161,0.199
		c0.269,0.089,1.479,0.147,1.479,2.112l0,0v5.259c0,1.046-0.252,1.231-0.829,1.358c-0.164,0.038-0.339,0.002-0.488,0.107
		c-0.052,0.037-0.085,0.087-0.085,0.177c0,0.121,0.055,0.196,0.306,0.196c0.316,0,0.625-0.05,0.942-0.069
		c0.2-0.006,0.391-0.01,0.73-0.01c0.51,0,0.672,0.008,1.016,0.045c0.081,0.014,0.164,0.024,0.254,0.024
		c0.224,0,0.286-0.097,0.286-0.209c0-0.121-0.05-0.185-0.148-0.211c-0.165-0.051-0.345-0.044-0.509-0.088
		c-0.522-0.132-0.781-0.376-0.781-1.259l0,0V63.04"/>
	<path fill-rule="evenodd" clip-rule="evenodd" fill="#231F20" d="M184.128,69.005V66.75c0-1.009,0.241-1.143,0.657-1.246
		c0.16-0.041,0.37-0.023,0.37-0.27c0-0.125-0.067-0.207-0.223-0.207c-0.581,0-1.158,0.062-1.74,0.062
		c-0.335,0-0.677-0.03-1.014-0.03c-0.195,0-0.25,0.088-0.25,0.213c0,0.089,0.031,0.146,0.079,0.182
		c0.04,0.034,0.112,0.038,0.246,0.069c0.51,0.105,0.719,0.267,0.719,1.131l0,0v1.221c0,0.519-0.078,0.7-0.522,1.071
		c-0.632,0.534-1.368,0.784-2.083,0.784c-1.307,0-2.361-0.533-3.173-1.693c-0.513-0.736-0.858-1.762-0.858-2.998
		c0-2.748,1.704-4.192,3.67-4.192c1.537,0,2.905,0.798,3.6,1.984c0.087,0.146,0.104,0.179,0.196,0.398
		c0.1,0.243,0.125,0.282,0.279,0.282c0.127,0,0.229-0.083,0.229-0.21c0-0.229-0.068-0.453-0.101-0.681
		c-0.058-0.452-0.064-0.487-0.095-1.244c-0.014-0.196-0.09-0.233-0.184-0.233c-0.15,0-0.22,0.161-0.371,0.161
		c-0.089,0-0.138-0.034-0.279-0.107c-1.018-0.532-2.11-0.791-3.14-0.791c-3.163,0.011-5.058,2.249-5.058,5.072
		c0,2.867,1.993,4.813,4.968,4.813c0.739,0,1.468-0.067,2.161-0.324c0.141-0.052,0.369-0.142,1.11-0.584
		C183.586,69.224,183.716,69.159,184.128,69.005L184.128,69.005"/>
	<path fill-rule="evenodd" clip-rule="evenodd" fill="#231F20" d="M202.874,70.274c2.087,0,3.447-1.417,3.447-3.009
		c0-0.681-0.254-1.275-0.767-1.758c-0.202-0.196-0.539-0.48-2-1.044c-1.633-0.641-1.637-0.709-1.764-0.806
		c-0.447-0.351-0.626-0.756-0.626-1.18c0-0.786,0.646-1.533,1.97-1.533c1.131,0,1.974,0.605,2.286,1.469
		c0.045,0.12,0.082,0.578,0.355,0.578c0.146,0,0.235-0.08,0.235-0.225c0-0.21-0.055-0.406-0.078-0.608
		c-0.065-0.487-0.083-0.693-0.093-0.932c-0.014-0.172,0.037-0.347-0.048-0.509c-0.051-0.092-0.104-0.108-0.166-0.108
		c-0.124,0-0.164,0.108-0.246,0.16c-0.053,0.033-0.125,0.059-0.189,0.059c-0.076,0-0.139-0.021-0.385-0.112
		c-0.668-0.238-1.07-0.304-1.624-0.304c-2.027,0-2.953,1.448-2.953,2.593c0,0.573,0.2,1.078,0.637,1.528
		c0.162,0.163,0.52,0.453,1.43,0.863c0.507,0.224,1.034,0.392,1.538,0.613c0.181,0.078,1.581,0.512,1.581,1.773
		c0,0.951-0.836,1.863-2.249,1.863c-1.175,0-2.138-0.653-2.547-1.764c-0.052-0.139-0.069-0.288-0.134-0.43
		c-0.063-0.145-0.135-0.179-0.248-0.179c-0.138,0-0.218,0.099-0.218,0.22c0,0.13,0.046,0.262,0.073,0.389
		c0.092,0.419,0.198,0.835,0.275,1.258c0.08,0.475,0.126,0.513,0.429,0.654C201.427,70.088,202.282,70.274,202.874,70.274
		L202.874,70.274"/>
	<path fill-rule="evenodd" clip-rule="evenodd" fill="#231F20" d="M207.514,69.923c0,0.146,0.087,0.224,0.26,0.224
		c0.188,0,0.378-0.024,0.565-0.028c0.218-0.009,0.372-0.009,1.05-0.017c0.344,0,0.729,0.01,0.986,0.027
		c0.171,0.014,0.344,0.045,0.512,0.045c0.173,0,0.263-0.086,0.263-0.213c0-0.121-0.049-0.18-0.185-0.214
		c-0.156-0.046-0.325-0.048-0.483-0.09c-0.894-0.251-0.761-0.956-0.761-1.602l0,0l0.039-6.164c0-0.727,0.212-0.85,0.641-0.85
		c1.488,0,2.632,1.148,2.632,2.413c0,0.99-0.828,1.888-2.176,1.888c-0.18,0-0.351-0.041-0.529-0.041c-0.206,0-0.278,0.1-0.278,0.23
		c0,0.089,0.038,0.157,0.207,0.209c0.077,0.027,0.394,0.09,0.794,0.09c0.556,0,1.23-0.182,1.735-0.475
		c0.875-0.513,1.37-1.401,1.37-2.208c0-0.816-0.338-1.536-1.037-2.086c-0.536-0.42-1.128-0.652-2.097-0.652
		c-0.795,0-1.574,0.16-2.369,0.16c-0.22,0-0.567-0.013-0.835-0.029c-0.128-0.016-0.251-0.035-0.382-0.035
		c-0.209,0-0.274,0.089-0.274,0.213c0,0.09,0.03,0.162,0.123,0.202c0.13,0.059,0.276,0.053,0.413,0.079
		c0.611,0.132,0.869,0.364,0.869,1.253l0,0l-0.006,5.838c-0.017,0.969-0.049,1.354-0.495,1.529
		c-0.151,0.059-0.321,0.037-0.462,0.127C207.553,69.774,207.514,69.84,207.514,69.923L207.514,69.923"/>
	<path fill-rule="evenodd" clip-rule="evenodd" fill="#231F20" d="M7.78,46.039c0,0.21,0.114,0.343,0.454,0.343
		c0.784,0,1.568-0.078,2.349-0.078c1.007,0,1.526,0.021,1.801,0.045c0.244,0.018,0.478,0.064,0.718,0.064
		c0.286,0,0.42-0.123,0.42-0.374c0-0.168-0.089-0.271-0.299-0.322c-0.251-0.056-0.512-0.059-0.76-0.134
		c-0.839-0.263-1.203-0.514-1.203-2.223l0,0l0.014-10.117c0-0.856,0.085-0.908,0.9-0.908l0,0h2.428c1.433,0,1.684,0.265,1.891,0.591
		c0.189,0.303,0.131,0.675,0.255,0.998c0.079,0.192,0.185,0.244,0.333,0.244c0.221,0,0.361-0.13,0.361-0.385
		c0-0.299-0.076-0.577-0.096-0.87c-0.01-0.12-0.042-0.794-0.042-0.88c0-0.866-0.141-0.983-0.917-0.983l0,0H4.751
		c-0.13,0-0.268,0-0.399,0c-0.539,0-0.677,0.052-0.791,0.818c-0.044,0.292-0.083,0.678-0.182,1.211
		c-0.042,0.24-0.124,0.468-0.124,0.715c0,0.24,0.145,0.388,0.344,0.388c0.151,0,0.278-0.059,0.368-0.351
		c0.381-1.221,0.766-1.475,2.039-1.475l0,0l2.781-0.011c0.558,0,0.674,0.162,0.674,0.523c0,0.123-0.007,0.254-0.007,0.381l0,0
		L9.438,43.547c-0.021,1.513-0.258,1.822-0.887,2.036c-0.212,0.066-0.45,0.037-0.646,0.185C7.835,45.822,7.78,45.901,7.78,46.039
		L7.78,46.039"/>
	<path fill-rule="evenodd" clip-rule="evenodd" fill="#231F20" d="M19.21,46.023c0,0.235,0.099,0.358,0.417,0.358
		c0.312,0,0.629-0.037,0.935-0.058c0.261-0.018,0.788-0.021,1.176-0.021c0.753,0,1.42,0.023,1.787,0.063
		c0.32,0.023,0.633,0.093,0.959,0.093c0.375,0,0.479-0.114,0.479-0.354c0-0.179-0.076-0.261-0.213-0.313
		c-0.289-0.11-0.606-0.087-0.897-0.172c-0.774-0.234-1.131-0.523-1.131-1.943l0,0l-0.004-4.231c0-0.413,0.101-0.522,0.626-0.522l0,0
		l6.972-0.014c0.46,0,0.557,0.069,0.557,0.664l0,0l0.003,3.905c0,1.656-0.36,1.898-0.969,2.087
		c-0.189,0.063-0.406,0.051-0.577,0.173c-0.076,0.05-0.125,0.134-0.125,0.251c0,0.246,0.085,0.366,0.451,0.366
		c0.763,0,1.523-0.051,2.286-0.051c0.745,0,1.444,0.023,2.143,0.086c0.171,0.02,0.335,0.041,0.509,0.041
		c0.205,0,0.367-0.139,0.367-0.343c0-0.166-0.051-0.24-0.117-0.283c-0.171-0.135-0.385-0.093-0.581-0.13
		c-1.106-0.214-1.546-0.712-1.546-1.856l0,0l0.026-10.304c0-1.303,0.313-1.572,1.151-1.792c0.211-0.062,0.502-0.021,0.502-0.372
		c0-0.269-0.134-0.371-0.392-0.371c-0.657,0-1.309,0.068-1.965,0.068c-0.313,0-0.616,0.007-0.922,0.007
		c-0.697,0-1.386-0.137-2.076-0.137c-0.228,0-0.403,0.151-0.403,0.369c0,0.161,0.065,0.271,0.353,0.326
		c0.564,0.12,1.174,0.134,1.569,0.653c0.166,0.224,0.315,0.361,0.315,1.792l0,0l0.011,3.139c0,0.57-0.055,0.643-0.742,0.643l0,0
		l-6.715,0.028c-0.625,0-0.708-0.1-0.708-0.581l0,0l-0.014-3.198c0-2.046,0.364-2.148,1.046-2.331
		c0.261-0.059,0.615,0.014,0.615-0.423c0-0.209-0.11-0.351-0.392-0.351c-0.626,0-1.255,0.065-1.877,0.065
		c-1.41,0-1.853-0.031-2.249-0.058c-0.279-0.021-0.541-0.093-0.818-0.093c-0.268,0-0.423,0.151-0.423,0.378
		c0,0.11,0.034,0.186,0.127,0.255c0.083,0.062,0.23,0.065,0.65,0.147c1.042,0.21,1.469,0.592,1.469,2.132l0,0l0.012,9.613
		c0,0.1,0,0.198,0,0.299c0,1.361-0.346,1.654-0.896,1.853c-0.175,0.056-0.362,0.073-0.533,0.128
		C19.272,45.768,19.21,45.848,19.21,46.023L19.21,46.023"/>
	<path fill-rule="evenodd" clip-rule="evenodd" fill="#231F20" d="M36.719,46.057c0,0.202,0.117,0.344,0.36,0.344
		c0.073,0,0.131,0,0.193,0c0.664,0,1.328-0.066,1.988-0.076c0.643-0.018,1.079-0.021,1.677-0.021c0.629,0,0.89,0,2.09,0.063
		c0.599,0.023,1.189,0.1,1.792,0.1c1.217,0,1.927-0.357,2.701-1.503c0.612-0.918,0.698-1.42,0.698-1.502
		c0-0.186-0.151-0.31-0.357-0.31c-0.093,0-0.134,0.003-0.242,0.1c-0.12,0.109-0.178,0.271-0.274,0.396
		c-0.546,0.764-1.336,1.296-2.23,1.522c-0.18,0.045-0.571,0.124-1.788,0.124l0,0h-1.286c-1.702,0-1.827-0.395-1.827-1.021l0,0
		v-4.664c0-0.568,0.111-0.644,0.562-0.644l0,0h1.917c1.985,0,2.253,0.426,2.472,1.242c0.076,0.278,0.021,0.584,0.154,0.855
		c0.066,0.12,0.151,0.159,0.262,0.159c0.251,0,0.389-0.117,0.389-0.4c0-0.249-0.032-0.501-0.055-0.752
		c-0.052-0.788-0.059-0.936-0.059-1.667c0-0.533,0.031-1.102,0.031-1.613c0-0.436-0.144-0.516-0.36-0.516
		c-0.134,0-0.261,0.076-0.32,0.227c-0.173,0.375-0.13,0.843-0.512,1.125c-0.162,0.121-0.412,0.282-1.658,0.282l0,0h-2.196
		c-0.529,0-0.657-0.12-0.657-0.639l0,0v-4.453c0-0.644,0.162-0.862,1.021-0.862l0,0h2.094c1.998,0,2.097,0.209,2.327,0.437
		c0.467,0.446,0.458,1.062,0.567,1.629c0.055,0.316,0.168,0.372,0.368,0.372c0.154,0,0.251-0.058,0.316-0.179
		c0.111-0.213,0.063-0.447,0.063-0.667c0.014-0.498,0.055-0.979,0.12-1.502c0.018-0.22,0.059-0.416,0.059-0.643
		c0-0.402-0.145-0.519-0.392-0.519c-0.156,0-0.281,0.017-1.115,0.072c-1.131,0.085-2.083,0.11-2.702,0.11l0,0h-4.874
		c-0.489,0-0.97-0.118-1.458-0.118c-0.34,0-0.447,0.158-0.451,0.337c0,0.138,0.052,0.251,0.255,0.334
		c0.353,0.154,0.749,0.1,1.106,0.244c0.537,0.237,0.908,0.563,0.908,2.135l0,0v9.637c0,1.479-0.374,1.77-0.849,1.945
		c-0.195,0.073-0.405,0.056-0.591,0.143C36.784,45.792,36.719,45.901,36.719,46.057L36.719,46.057"/>
	<path fill-rule="evenodd" clip-rule="evenodd" fill="#231F20" d="M61.987,43.895l-4.494-10.475
		c-0.254-0.599-0.277-0.796-0.277-0.953c0-0.64,0.691-0.76,0.84-0.813c0.265-0.1,0.306-0.212,0.306-0.368
		c0-0.194-0.117-0.314-0.354-0.314c-0.293,0-0.585,0.039-0.881,0.05c-0.209,0.009-0.559,0.021-1.545,0.021
		c-0.734,0-0.837-0.006-1.417-0.059c-0.504-0.05-0.546-0.056-0.59-0.056c-0.27,0-0.39,0.146-0.39,0.344
		c0,0.188,0.076,0.294,0.315,0.35c0.255,0.053,0.513,0.088,0.754,0.205c0.354,0.17,0.644,0.427,0.952,0.943
		c0.361,0.617,0.58,1.299,0.861,1.952l0,0l4.945,11.527c0.271,0.605,0.388,0.605,0.567,0.605c0.187,0,0.293-0.01,0.541-0.559l0,0
		l2.675-6.207l2.538,5.887c0.214,0.494,0.289,0.602,0.305,0.627c0.109,0.163,0.224,0.221,0.392,0.221
		c0.409,0,0.565-0.645,0.579-0.674l0,0l5.312-12.327c0.522-1.219,0.668-1.829,1.482-2.055c0.255-0.072,0.5-0.088,0.614-0.185
		c0.08-0.067,0.117-0.144,0.117-0.279c0-0.19-0.134-0.335-0.427-0.335c-0.598,0-1.194,0.077-1.792,0.077
		c-0.51,0-1.033-0.03-1.255-0.048c-0.23-0.022-0.455-0.073-0.684-0.073c-0.258,0-0.391,0.123-0.391,0.352
		c0,0.121,0.044,0.218,0.15,0.282c0.214,0.136,0.468,0.085,0.694,0.159c0.435,0.144,0.669,0.482,0.669,0.885
		c0,0.372-0.12,0.737-0.556,1.736l0,0l-4.122,9.506l-2.626-6.085l2.091-4.875c0.392-0.932,0.392-0.949,1.023-1.226
		c0.337-0.159,0.37-0.252,0.37-0.391c0-0.194-0.123-0.323-0.399-0.323c-0.549,0-1.096,0.083-1.646,0.083
		c-0.481,0-0.954-0.079-1.438-0.079c-0.403,0-0.488,0.152-0.488,0.346c0,0.168,0.047,0.271,0.441,0.348
		c0.349,0.064,1.038,0.099,1.038,0.74c0,0.111-0.072,0.525-0.257,0.943l0,0l-1.326,3.062l-1.333-3.106
		c-0.221-0.518-0.229-0.676-0.229-0.867c0-0.266,0.123-0.473,0.399-0.631c0.234-0.133,0.623-0.074,0.623-0.489
		c0-0.208-0.142-0.334-0.384-0.334c-0.708,0-1.411,0.091-2.119,0.091c-0.731,0-1.458-0.102-2.192-0.102
		c-0.317,0-0.435,0.117-0.435,0.346c0,0.136,0.066,0.232,0.185,0.297c0.062,0.035,0.149,0.044,0.402,0.083
		c1.236,0.185,1.254,0.458,1.719,1.547l0,0l2.374,5.503L61.987,43.895"/>
	<path fill-rule="evenodd" clip-rule="evenodd" fill="#231F20" d="M77.412,45.991c0,0.234,0.097,0.367,0.417,0.367
		c0.312,0,0.621-0.052,0.936-0.063c0.255-0.011,0.778-0.029,1.166-0.029c0.755,0,1.426,0.034,1.786,0.067
		c0.321,0.026,0.639,0.1,0.961,0.1c0.37,0,0.473-0.12,0.473-0.367c0-0.171-0.078-0.255-0.212-0.302
		c-0.287-0.116-0.604-0.091-0.898-0.177c-0.767-0.233-1.121-0.521-1.121-1.942l0,0l-0.011-4.227c0-0.407,0.099-0.519,0.627-0.519
		l0,0l6.962-0.012c0.46,0,0.554,0.068,0.554,0.658l0,0l0.013,3.902c0,1.648-0.364,1.896-0.97,2.086
		c-0.188,0.06-0.406,0.044-0.576,0.168c-0.083,0.053-0.125,0.132-0.125,0.255c0,0.244,0.088,0.367,0.449,0.367
		c0.757,0,1.519-0.05,2.28-0.05c0.745,0,1.443,0.026,2.135,0.089c0.174,0.014,0.341,0.039,0.512,0.039
		c0.199,0,0.364-0.143,0.364-0.349c0-0.161-0.052-0.236-0.114-0.284c-0.177-0.134-0.388-0.094-0.582-0.132
		c-1.103-0.207-1.54-0.709-1.54-1.849l0,0l0.023-10.288c0-1.301,0.314-1.569,1.142-1.789c0.218-0.056,0.506-0.021,0.506-0.367
		c0-0.271-0.135-0.374-0.39-0.374c-0.656,0-1.305,0.071-1.963,0.071c-0.303,0-0.611,0.003-0.915,0.003
		c-0.699,0-1.383-0.136-2.077-0.136c-0.227,0-0.396,0.154-0.396,0.367c0,0.156,0.057,0.274,0.349,0.327
		c0.567,0.114,1.175,0.135,1.567,0.65c0.169,0.226,0.32,0.361,0.32,1.789l0,0l0.005,3.138c0,0.567-0.053,0.641-0.744,0.641l0,0
		l-6.706,0.03c-0.628,0-0.702-0.103-0.702-0.587l0,0l-0.016-3.191c0-2.04,0.361-2.143,1.036-2.322
		c0.262-0.061,0.618,0.009,0.618-0.425c0-0.208-0.106-0.35-0.392-0.35c-0.622,0-1.246,0.067-1.872,0.067
		c-1.41,0-1.854-0.03-2.245-0.059c-0.273-0.023-0.54-0.094-0.822-0.094c-0.262,0-0.42,0.153-0.42,0.376
		c0,0.112,0.038,0.188,0.126,0.255c0.084,0.06,0.235,0.066,0.655,0.147c1.035,0.208,1.462,0.594,1.462,2.13l0,0l0.012,9.594
		c0,0.101,0,0.197,0,0.3c0,1.36-0.344,1.653-0.899,1.848c-0.167,0.06-0.356,0.074-0.525,0.129
		C77.473,45.731,77.412,45.817,77.412,45.991L77.412,45.991"/>
	<path fill-rule="evenodd" clip-rule="evenodd" fill="#231F20" d="M94.518,45.992c0,0.23,0.126,0.353,0.529,0.353
		c0.759,0,1.516-0.081,2.274-0.081c0.455,0.011,0.97,0.028,1.625,0.076c0.271,0.021,0.536,0.058,0.802,0.058
		c0.379,0,0.507-0.154,0.507-0.357c0-0.149-0.058-0.235-0.292-0.313c-0.371-0.127-0.773-0.102-1.131-0.275
		c-0.476-0.237-0.861-0.58-0.861-2.251l0,0v-9.537c0-1.431,0.353-1.695,0.908-1.88c0.19-0.068,0.406-0.059,0.586-0.153
		c0.142-0.076,0.192-0.152,0.192-0.335c0-0.155-0.079-0.308-0.409-0.308c-0.687,0-1.37,0.056-2.054,0.056
		c-0.546,0-1.123-0.015-2.291-0.098c-0.208-0.017-0.421-0.038-0.629-0.038c-0.227,0-0.367,0.135-0.367,0.34
		c0,0.17,0.078,0.268,0.267,0.335c0.315,0.106,0.654,0.082,0.969,0.201c0.662,0.237,1.014,0.541,1.014,2.085l0,0v9.656
		c0,1.481-0.335,1.736-0.775,1.938c-0.19,0.089-0.4,0.125-0.593,0.206C94.581,45.76,94.518,45.849,94.518,45.992L94.518,45.992"/>
	<path fill-rule="evenodd" clip-rule="evenodd" fill="#231F20" d="M105.254,46.004c0,0.213,0.11,0.354,0.458,0.354
		c0.778,0,1.558-0.084,2.335-0.084c1.008,0,1.526,0.021,1.805,0.044c0.238,0.016,0.473,0.063,0.717,0.063
		c0.284,0,0.414-0.129,0.414-0.377c0-0.164-0.084-0.271-0.296-0.317c-0.25-0.059-0.511-0.064-0.757-0.137
		c-0.842-0.265-1.202-0.515-1.202-2.216l0,0l0.014-10.106c0-0.857,0.083-0.904,0.899-0.904l0,0h2.423
		c1.435,0,1.68,0.265,1.886,0.593c0.187,0.305,0.13,0.669,0.254,0.99c0.082,0.194,0.182,0.25,0.335,0.25
		c0.217,0,0.357-0.129,0.357-0.391c0-0.291-0.076-0.576-0.094-0.867c-0.008-0.12-0.037-0.794-0.037-0.879
		c0-0.867-0.145-0.978-0.926-0.978l0,0h-11.606c-0.132,0-0.268-0.003-0.4-0.003c-0.541,0-0.679,0.049-0.796,0.82
		c-0.041,0.291-0.073,0.676-0.176,1.21c-0.044,0.235-0.123,0.461-0.123,0.708c0,0.241,0.141,0.388,0.349,0.388
		c0.142,0,0.271-0.059,0.361-0.343c0.379-1.219,0.767-1.479,2.033-1.479l0,0l2.78-0.006c0.559,0,0.667,0.153,0.667,0.514
		c0,0.127,0,0.259,0,0.385l0,0l-0.023,10.278c-0.021,1.515-0.25,1.824-0.884,2.035c-0.213,0.066-0.453,0.038-0.644,0.182
		C105.306,45.784,105.254,45.87,105.254,46.004L105.254,46.004"/>
	<path fill-rule="evenodd" clip-rule="evenodd" fill="#231F20" d="M116.165,46.025c0,0.2,0.12,0.346,0.364,0.346
		c0.063,0,0.125,0,0.185,0c0.666,0,1.325-0.064,1.992-0.075c0.644-0.011,1.079-0.023,1.669-0.023c0.632,0,0.89,0.002,2.089,0.062
		c0.594,0.029,1.19,0.105,1.786,0.105c1.216,0,1.928-0.36,2.701-1.511c0.613-0.911,0.696-1.419,0.696-1.498
		c0-0.186-0.15-0.313-0.358-0.313c-0.094,0-0.136,0.004-0.239,0.102c-0.122,0.114-0.185,0.273-0.278,0.401
		c-0.544,0.756-1.334,1.291-2.224,1.517c-0.18,0.044-0.568,0.123-1.783,0.123l0,0h-1.284c-1.698,0-1.823-0.394-1.823-1.022l0,0
		v-4.654c0-0.57,0.104-0.646,0.555-0.646l0,0h1.916c1.98,0,2.245,0.428,2.465,1.243c0.077,0.279,0.027,0.582,0.162,0.852
		c0.061,0.124,0.146,0.162,0.256,0.162c0.252,0,0.39-0.123,0.39-0.396c0-0.255-0.034-0.505-0.055-0.755
		c-0.05-0.784-0.06-0.929-0.06-1.66c0-0.536,0.03-1.103,0.03-1.608c0-0.44-0.142-0.522-0.359-0.522
		c-0.139,0-0.256,0.079-0.319,0.226c-0.168,0.374-0.13,0.843-0.512,1.12c-0.161,0.12-0.413,0.282-1.656,0.282l0,0h-2.184
		c-0.539,0-0.661-0.117-0.661-0.632l0,0v-4.446c0-0.646,0.162-0.861,1.017-0.861l0,0h2.089c1.998,0,2.096,0.209,2.327,0.435
		c0.468,0.446,0.459,1.058,0.566,1.63c0.06,0.31,0.165,0.365,0.366,0.365c0.154,0,0.252-0.06,0.315-0.177
		c0.106-0.214,0.057-0.444,0.063-0.67c0.012-0.494,0.05-0.97,0.114-1.501c0.026-0.211,0.064-0.409,0.064-0.637
		c0-0.4-0.146-0.514-0.391-0.514c-0.155,0-0.285,0.008-1.112,0.072c-1.126,0.08-2.082,0.103-2.698,0.103l0,0h-4.866
		c-0.488,0-0.967-0.111-1.452-0.111c-0.347,0-0.446,0.152-0.456,0.335c0,0.138,0.048,0.247,0.257,0.332
		c0.352,0.149,0.749,0.1,1.101,0.247c0.545,0.235,0.912,0.559,0.912,2.124l0,0v9.627c0,1.478-0.376,1.76-0.85,1.938
		c-0.19,0.074-0.405,0.06-0.587,0.146C116.232,45.765,116.165,45.866,116.165,46.025L116.165,46.025"/>
	<path fill-rule="evenodd" clip-rule="evenodd" fill="#231F20" d="M179.238,35.061l9.484,10.851
		c0.325,0.361,0.476,0.529,0.717,0.529c0.272,0,0.453-0.077,0.453-0.74l0,0l-0.01-11.545c0.015-1.146,0.032-1.954,1.031-2.268
		c0.237-0.08,0.552-0.091,0.682-0.226c0.058-0.065,0.085-0.144,0.085-0.232c0-0.232-0.103-0.365-0.381-0.365
		c-0.601,0-1.199,0.048-1.802,0.048c-1.598,0-1.981-0.021-2.195-0.032c-0.317-0.016-0.628-0.074-0.946-0.074
		c-0.261,0-0.402,0.159-0.402,0.388c0,0.177,0.08,0.284,0.34,0.332c0.544,0.103,1.026,0.105,1.382,0.273
		c0.517,0.247,0.892,0.678,1.058,1.501c0.027,0.126,0.057,0.186,0.057,1.378l0,0v8.377l-10.119-11.584
		c-0.297-0.34-0.447-0.649-0.973-0.649c-0.262,0-0.522,0.056-0.788,0.056c-0.317,0-0.635-0.053-0.954-0.053
		c-0.26,0-0.396,0.129-0.396,0.367c0,0.165,0.04,0.25,0.251,0.326c0.421,0.138,2.334,0.235,2.334,3.379l0,0v8.416
		c0,1.675-0.402,1.979-1.313,2.181c-0.257,0.055-0.532,0.004-0.766,0.164c-0.081,0.063-0.139,0.153-0.139,0.292
		c0,0.199,0.089,0.319,0.485,0.319c0.497,0,0.988-0.085,1.482-0.106c0.319-0.016,0.619-0.023,1.159-0.023
		c0.8,0,1.059,0.013,1.598,0.074c0.134,0.015,0.266,0.037,0.401,0.037c0.35,0,0.451-0.154,0.451-0.341
		c0-0.192-0.079-0.29-0.239-0.333c-0.26-0.083-0.536-0.074-0.798-0.146c-0.824-0.21-1.229-0.6-1.229-2.013l0,0V35.061"/>
	<path fill-rule="evenodd" clip-rule="evenodd" fill="#231F20" d="M198.791,45.935c0,0.229,0.127,0.352,0.526,0.352
		c0.761,0,1.516-0.082,2.277-0.082c0.456,0.009,0.972,0.029,1.628,0.076c0.264,0.021,0.528,0.06,0.799,0.06
		c0.376,0,0.505-0.156,0.505-0.358c0-0.151-0.053-0.234-0.291-0.314c-0.367-0.127-0.775-0.101-1.132-0.273
		c-0.473-0.241-0.857-0.582-0.857-2.251l0,0v-9.539c0-1.431,0.351-1.696,0.904-1.881c0.192-0.067,0.405-0.059,0.589-0.152
		c0.141-0.077,0.193-0.153,0.193-0.338c0-0.156-0.085-0.306-0.414-0.306c-0.681,0-1.363,0.056-2.05,0.056
		c-0.547,0-1.124-0.015-2.291-0.1c-0.213-0.014-0.419-0.035-0.632-0.035c-0.226,0-0.366,0.135-0.366,0.34
		c0,0.171,0.076,0.268,0.268,0.335c0.313,0.103,0.658,0.083,0.967,0.2c0.664,0.238,1.02,0.541,1.02,2.086l0,0v9.655
		c0,1.481-0.339,1.736-0.775,1.939c-0.191,0.089-0.405,0.125-0.601,0.206C198.855,45.699,198.791,45.79,198.791,45.935
		L198.791,45.935"/>
	<path fill-rule="evenodd" clip-rule="evenodd" fill="#231F20" d="M209.37,34.935l9.48,10.851c0.332,0.361,0.476,0.526,0.722,0.526
		c0.269,0,0.45-0.076,0.45-0.741l0,0l-0.01-11.544c0.02-1.146,0.033-1.951,1.031-2.265c0.242-0.08,0.554-0.095,0.684-0.23
		c0.059-0.064,0.085-0.144,0.085-0.231c0-0.232-0.1-0.362-0.383-0.362c-0.596,0-1.199,0.044-1.8,0.044
		c-1.6,0-1.979-0.018-2.19-0.032c-0.315-0.012-0.631-0.074-0.948-0.074c-0.263,0-0.402,0.159-0.402,0.388
		c0,0.18,0.078,0.285,0.344,0.335c0.54,0.1,1.019,0.103,1.378,0.273c0.517,0.246,0.889,0.679,1.058,1.502
		c0.023,0.123,0.055,0.185,0.055,1.378l0,0v8.374l-10.117-11.583c-0.294-0.338-0.445-0.646-0.971-0.646
		c-0.268,0-0.526,0.053-0.792,0.053c-0.316,0-0.631-0.05-0.949-0.05c-0.26,0-0.403,0.126-0.403,0.364
		c0,0.165,0.047,0.253,0.256,0.329c0.42,0.136,2.329,0.232,2.329,3.376l0,0v8.418c0,1.673-0.396,1.978-1.308,2.178
		c-0.255,0.056-0.534,0.003-0.767,0.164c-0.079,0.065-0.138,0.154-0.138,0.295c0,0.198,0.091,0.319,0.488,0.319
		c0.491,0,0.983-0.085,1.479-0.108c0.322-0.015,0.621-0.023,1.162-0.023c0.795,0,1.051,0.015,1.595,0.073
		c0.132,0.018,0.265,0.038,0.396,0.038c0.354,0,0.455-0.155,0.455-0.337c0-0.195-0.075-0.294-0.238-0.339
		c-0.258-0.082-0.541-0.073-0.799-0.145c-0.822-0.211-1.232-0.6-1.232-2.012l0,0V34.935"/>
	<path fill-rule="evenodd" clip-rule="evenodd" fill="#231F20" d="M226.661,34.935l9.479,10.851c0.33,0.361,0.477,0.526,0.721,0.526
		c0.271,0,0.449-0.076,0.449-0.741l0,0l-0.006-11.544c0.019-1.146,0.032-1.951,1.032-2.265c0.237-0.08,0.552-0.095,0.683-0.23
		c0.057-0.064,0.083-0.144,0.083-0.231c0-0.232-0.099-0.362-0.38-0.362c-0.601,0-1.199,0.044-1.802,0.044
		c-1.602,0-1.981-0.018-2.195-0.032c-0.314-0.012-0.628-0.074-0.946-0.074c-0.262,0-0.402,0.159-0.402,0.388
		c0,0.18,0.079,0.285,0.34,0.335c0.545,0.1,1.023,0.103,1.382,0.273c0.517,0.246,0.891,0.679,1.061,1.502
		c0.021,0.123,0.053,0.185,0.053,1.378l0,0v8.374l-10.121-11.583c-0.295-0.338-0.441-0.646-0.97-0.646
		c-0.266,0-0.522,0.053-0.788,0.053c-0.317,0-0.634-0.05-0.956-0.05c-0.257,0-0.398,0.126-0.398,0.364
		c0,0.165,0.044,0.253,0.255,0.329c0.421,0.136,2.33,0.232,2.33,3.376l0,0v8.418c0,1.673-0.396,1.978-1.308,2.178
		c-0.256,0.056-0.533,0.003-0.767,0.164c-0.081,0.065-0.139,0.154-0.139,0.295c0,0.198,0.089,0.319,0.489,0.319
		c0.493,0,0.984-0.085,1.479-0.108c0.318-0.015,0.622-0.023,1.159-0.023c0.8,0,1.055,0.015,1.599,0.073
		c0.133,0.018,0.265,0.038,0.397,0.038c0.352,0,0.454-0.155,0.454-0.337c0-0.195-0.075-0.294-0.236-0.339
		c-0.26-0.082-0.541-0.073-0.801-0.145c-0.825-0.211-1.229-0.6-1.229-2.012l0,0V34.935"/>
	<path fill-rule="evenodd" clip-rule="evenodd" fill="#231F20" d="M114.145,64.431c0.681,0,1.234,0.406,1.234,0.905
		c0,0.497-0.553,0.901-1.234,0.901c-0.682,0-1.235-0.404-1.235-0.901C112.91,64.837,113.463,64.431,114.145,64.431L114.145,64.431"
		/>
	<path fill-rule="evenodd" clip-rule="evenodd" fill="#231F20" d="M192.567,64.431c0.683,0,1.235,0.406,1.235,0.905
		c0,0.497-0.553,0.901-1.235,0.901c-0.681,0-1.232-0.404-1.232-0.901C191.335,64.837,191.887,64.431,192.567,64.431L192.567,64.431"
		/>
	<path fill-rule="evenodd" clip-rule="evenodd" fill="#231F20" d="M56.205,69.915L56.205,69.915c0-0.085,0.035-0.134,0.073-0.164
		c0.136-0.107,0.316-0.072,0.463-0.128c0.221-0.076,0.364-0.196,0.451-0.505c0.017-0.062,0.061-0.221,0.061-0.963v-5.773l0,0
		c0-0.147,0-0.294,0-0.442c0-0.398-0.061-0.502-0.191-0.649c-0.104-0.12-0.249-0.215-0.599-0.281
		c-0.13-0.029-0.272-0.015-0.382-0.108c-0.04-0.037-0.068-0.092-0.068-0.161c0-0.112,0.068-0.217,0.3-0.217
		c0.38,0,0.763,0.048,1.145,0.048c0.949,0,1.894-0.123,2.841-0.123c3.462,0,5.388,2.009,5.388,4.847
		c0,2.882-2.091,4.938-5.234,4.938c-0.457,0-0.827-0.047-1.574-0.093c-0.464-0.029-0.928-0.059-1.392-0.059
		c-0.333,0-0.663,0.045-0.997,0.045C56.273,70.125,56.205,70.053,56.205,69.915 M58.419,68.517L58.419,68.517
		c0,0.625,0.099,0.68,0.23,0.774c0.069,0.047,0.763,0.359,2.039,0.359c0.933,0,1.984-0.39,2.583-0.887
		c0.862-0.698,1.286-1.761,1.286-3.151c0-3.136-2.3-4.651-4.7-4.651c-1.417,0-1.423,0.267-1.423,1.103L58.419,68.517"/>
	<path fill-rule="evenodd" clip-rule="evenodd" fill="#231F20" d="M134.157,70.279L134.157,70.279c-2.691,0-4.995-2.158-4.995-5.087
		c0-1.665,0.795-3.092,2.148-3.985c0.812-0.537,1.781-0.829,2.83-0.829c2.685,0,4.983,2.165,4.983,5
		C139.124,68.187,136.926,70.279,134.157,70.279 M134.432,69.691L134.432,69.691c1.833,0,3.494-1.463,3.494-3.87
		c0-2.126-1.394-4.868-4.039-4.868c-1.373,0-3.504,0.966-3.504,3.92C130.383,67.128,131.864,69.691,134.432,69.691"/>
	<path fill-rule="evenodd" clip-rule="evenodd" fill="#231F20" d="M139.458,69.915L139.458,69.915c0-0.085,0.039-0.134,0.076-0.164
		c0.138-0.107,0.309-0.072,0.46-0.128c0.224-0.076,0.365-0.196,0.451-0.505c0.017-0.062,0.062-0.221,0.062-0.963v-5.773l0,0
		c0-0.147,0-0.294,0-0.442c0-0.398-0.062-0.502-0.189-0.649c-0.106-0.12-0.254-0.215-0.602-0.281
		c-0.131-0.029-0.271-0.015-0.378-0.108c-0.045-0.037-0.064-0.092-0.064-0.161c0-0.112,0.061-0.217,0.295-0.217
		c0.381,0,0.76,0.048,1.141,0.048c0.952,0,1.896-0.123,2.847-0.123c3.466,0,5.395,2.009,5.395,4.847
		c0,2.882-2.094,4.938-5.242,4.938c-0.454,0-0.824-0.047-1.576-0.093c-0.46-0.029-0.923-0.059-1.389-0.059
		c-0.332,0-0.663,0.045-0.995,0.045C139.526,70.125,139.458,70.053,139.458,69.915 M141.677,68.517L141.677,68.517
		c0,0.625,0.099,0.68,0.224,0.774c0.075,0.047,0.772,0.359,2.043,0.359c0.934,0,1.981-0.39,2.585-0.887
		c0.861-0.698,1.283-1.761,1.283-3.151c0-3.136-2.3-4.651-4.698-4.651c-1.418,0-1.428,0.267-1.428,1.103L141.677,68.517"/>
	<path fill-rule="evenodd" clip-rule="evenodd" fill="#231F20" d="M212.582,69.934L212.582,69.934c0-0.061,0.021-0.114,0.048-0.146
		c0.106-0.127,0.265-0.107,0.406-0.138c0.664-0.161,0.664-0.293,1.182-1.396l3.566-7.585l0,0c0.1-0.205,0.175-0.237,0.261-0.237
		c0.096,0,0.172,0.021,0.285,0.263l3.249,8.13l0,0c0.255,0.62,0.405,0.732,1.033,0.854c0.349,0.058,0.468,0.082,0.468,0.257
		c0,0.121-0.092,0.217-0.247,0.217c-0.035,0-0.144,0-0.375-0.023c-0.443-0.034-0.887-0.049-1.334-0.049
		c-0.448,0-0.894,0.066-1.347,0.066c-0.027,0-0.059,0-0.086,0c-0.189,0-0.258-0.072-0.258-0.221c0-0.08,0.035-0.135,0.09-0.175
		c0.095-0.076,0.224-0.062,0.336-0.094c0.386-0.1,0.516-0.302,0.516-0.577c0-0.059-0.006-0.188-0.134-0.488l-0.561-1.409l0,0
		c-0.189-0.468-0.337-0.521-0.639-0.521h-2.868l0,0c-0.381,0-0.453,0.005-0.707,0.533l-0.674,1.4l0,0
		c-0.084,0.175-0.114,0.344-0.114,0.411c0,0.185,0.082,0.359,0.383,0.499c0.302,0.148,0.649,0.145,0.969,0.23
		c0.154,0.045,0.182,0.097,0.182,0.209c0,0.122-0.082,0.214-0.24,0.214c-0.086,0-0.171-0.007-0.259-0.013
		c-0.763-0.063-0.88-0.063-1.281-0.063c-0.608,0.004-0.973,0.025-1.016,0.025c-0.201,0.009-0.405,0.037-0.607,0.037
		C212.665,70.146,212.582,70.077,212.582,69.934 M217.746,62.339l-1.603,3.399l0,0c-0.037,0.068-0.051,0.135-0.051,0.175
		c0,0.1,0.044,0.147,0.194,0.147h2.575l0,0c0.266,0,0.286-0.043,0.286-0.154c0-0.03,0-0.058-0.035-0.145L217.746,62.339"/>
	<path fill-rule="evenodd" clip-rule="evenodd" fill="#231F20" d="M143.453,37.779L143.453,37.779
		c2.194,0.314,3.382,2.069,3.382,3.894c0,2.541-1.783,4.651-5.8,4.651c-0.944,0-1.883-0.135-2.829-0.135
		c-0.413,0-1.149,0.017-1.558,0.042c-0.33,0.016-0.656,0.078-0.985,0.078c-0.288,0-0.427-0.153-0.427-0.38
		c0-0.102,0.042-0.182,0.091-0.23c0.096-0.089,0.284-0.095,0.577-0.184c0.614-0.19,0.968-0.52,0.968-1.648c0-0.103,0-0.204,0-0.308
		l0.008-9.771l0,0c0-1.384-0.219-1.586-0.47-1.808c-0.456-0.399-1.421-0.455-1.514-0.484c-0.173-0.053-0.25-0.135-0.25-0.329
		c0-0.224,0.145-0.344,0.374-0.344c0.039,0,0.076,0.006,0.443,0.032c0.876,0.08,1.067,0.085,1.671,0.085
		c1.135,0,2.264-0.112,3.394-0.112c3.616,0,5.105,1.934,5.105,3.719C145.634,35.764,144.936,37.003,143.453,37.779 M138.729,37.157
		L138.729,37.157c0,0.364,0.041,0.476,0.654,0.476c0.228,0,0.45,0,0.68,0c1.104,0,1.822-0.094,1.871-0.103
		c1.316-0.274,1.983-1.159,1.983-2.298c0-1.866-1.452-3.465-4.016-3.465c-0.988,0-1.168,0.147-1.168,1.17l-0.005,3.911l0,0
		C138.729,37.104,138.729,37.157,138.729,37.157 M138.711,44.182L138.711,44.182c0,0.855,0.22,1.34,2.092,1.34
		c3.061,0,4.301-1.468,4.301-3.311c0-0.981-0.434-1.987-1.031-2.607c-0.646-0.654-1.48-1.098-3.27-1.098
		c-0.283,0-0.561,0.005-0.84,0.005c-0.229,0-0.518,0.007-0.58,0.009c-0.41,0.009-0.452,0.041-0.473,0.051
		c-0.112,0.064-0.182,0.131-0.182,0.497l-0.018,4.988l0,0C138.711,44.097,138.711,44.142,138.711,44.182"/>
	<path fill-rule="evenodd" clip-rule="evenodd" fill="#231F20" d="M162.04,46.394L162.04,46.394
		c-0.06,0.039-0.135,0.057-0.224,0.057c-0.046,0-0.224-0.003-0.587-0.036c-0.702-0.055-1.398-0.084-2.104-0.084
		c-0.711,0-1.416,0.109-2.126,0.109c-0.044,0-0.092,0-0.133,0c-0.297,0-0.411-0.122-0.411-0.359c0-0.124,0.055-0.218,0.139-0.279
		c0.158-0.128,0.354-0.1,0.533-0.146c0.611-0.159,0.815-0.489,0.815-0.928c0-0.093-0.015-0.304-0.21-0.776l-0.892-2.263l0,0
		c-0.296-0.746-0.522-0.828-1-0.828h-4.525l0,0c-0.601,0-0.713,0.002-1.112,0.851l-1.064,2.245l0,0
		c-0.13,0.279-0.183,0.55-0.183,0.659c0,0.29,0.132,0.566,0.602,0.796c0.483,0.238,1.029,0.229,1.534,0.372
		c0.244,0.068,0.286,0.154,0.286,0.333c0,0.191-0.133,0.347-0.382,0.347c-0.136,0-0.271-0.015-0.406-0.022
		c-1.207-0.096-1.386-0.101-2.025-0.101c-0.954,0.01-1.532,0.036-1.595,0.038c-0.319,0.017-0.637,0.064-0.961,0.064
		c-0.229,0-0.357-0.117-0.357-0.35c0-0.088,0.035-0.185,0.076-0.232c0.164-0.2,0.416-0.166,0.638-0.221
		c1.053-0.255,1.053-0.468,1.868-2.229l5.627-12.148l0,0c0.151-0.332,0.267-0.381,0.405-0.381c0.152,0,0.276,0.038,0.453,0.42
		l5.123,13.02l0,0c0.397,0.988,0.635,1.175,1.625,1.365c0.077,0.014,0.145,0.025,0.206,0.038c0.199-0.096,0.429-0.087,0.63-0.171
		c0.431-0.169,0.766-0.293,0.79-2.085l0.046-9.435l0,0c0-1.458-0.165-1.625-0.287-1.78c-0.368-0.465-0.943-0.435-1.446-0.594
		c-0.244-0.083-0.3-0.167-0.3-0.353c0-0.197,0.146-0.329,0.411-0.329c0.799,0,1.599,0.132,2.403,0.132
		c1.028,0,2.045-0.152,3.071-0.152c3.408,0,4.933,1.836,4.933,3.804c0,1.535-0.957,3.109-2.821,3.927l3.081,4.742l0,0
		c0.551,0.843,1.267,2.042,2.441,2.209c0.018,0.003,0.476,0.024,0.461,0.021c0.224,0.04,0.335,0.164,0.335,0.339
		c0,0.113-0.065,0.24-0.271,0.341c-0.279,0.138-0.782,0.259-1.195,0.259c-0.474,0-0.888-0.089-1.324-0.288
		c-1.168-0.546-1.771-1.597-2.426-2.606l-2.476-3.806l0,0c-0.366-0.55-0.488-0.569-0.754-0.596
		c-0.396-0.039-0.793-0.007-1.189-0.007c-0.772,0-0.835,0.15-0.835,0.627l-0.022,3.579l0,0c0,1.133,0.19,1.454,0.367,1.668
		c0.414,0.509,1.043,0.5,1.617,0.632c0.237,0.05,0.293,0.133,0.293,0.304c0,0.218-0.096,0.361-0.471,0.361
		c-0.276,0-0.55-0.036-0.82-0.06c-0.649-0.045-1.548-0.073-2.171-0.073C163.177,46.333,162.607,46.386,162.04,46.394
		 M153.778,33.944l-2.532,5.441l0,0c-0.052,0.113-0.078,0.216-0.078,0.279c0,0.159,0.073,0.239,0.312,0.239h4.06l0,0
		c0.418,0,0.453-0.077,0.453-0.247c0-0.048-0.003-0.095-0.056-0.232L153.778,33.944 M165.755,38.391L165.755,38.391
		c0.169,0,0.335,0.009,0.507,0.009c1.38,0,1.856-0.147,2.16-0.268c0.91-0.367,1.703-1.272,1.703-2.577
		c0-2.216-1.501-3.694-3.742-3.694c-1.112,0-1.4,0.208-1.4,1.554v4.09l0,0C164.982,38.22,165.162,38.391,165.755,38.391"/>
</g>
</svg>
